<svg width="6" height="9" viewBox="0 0 6 9" fill="none" xmlns="http://www.w3.org/2000/svg">
<path d="M3.00138 8.132C2.45871 8.132 1.98388 8 1.57688 7.736C1.17354 7.472 0.858208 7.07417 0.630875 6.5425C0.407208 6.01083 0.295375 5.34533 0.295375 4.546C0.295375 3.74667 0.407208 3.083 0.630875 2.555C0.858208 2.02333 1.17354 1.62733 1.57688 1.367C1.98388 1.103 2.45871 0.970999 3.00138 0.970999C3.54038 0.970999 4.01338 1.103 4.42038 1.367C4.82738 1.62733 5.14271 2.02333 5.36638 2.555C5.59371 3.083 5.70738 3.74667 5.70738 4.546C5.70738 5.34533 5.59371 6.01083 5.36638 6.5425C5.14271 7.07417 4.82738 7.472 4.42038 7.736C4.01338 8 3.54038 8.132 3.00138 8.132ZM3.00138 7.34C3.59538 7.34 4.04638 7.098 4.35438 6.614C4.66238 6.12633 4.81638 5.437 4.81638 4.546C4.81638 3.655 4.66238 2.9675 4.35438 2.4835C4.04638 1.99583 3.59538 1.752 3.00138 1.752C2.41471 1.752 1.96554 1.99583 1.65388 2.4835C1.34221 2.9675 1.18637 3.655 1.18637 4.546C1.18637 5.437 1.34221 6.12633 1.65388 6.614C1.96554 7.098 2.41471 7.34 3.00138 7.34Z" fill="white"/>
</svg>
