<svg width="34" height="9" viewBox="0 0 34 9" fill="none" xmlns="http://www.w3.org/2000/svg">
<path d="M3.828 8.144C3.164 8.144 2.592 7.978 2.112 7.646C1.632 7.31 1.262 6.846 1.002 6.254C0.742 5.658 0.612 4.968 0.612 4.184C0.612 3.348 0.752 2.644 1.032 2.072C1.316 1.5 1.7 1.068 2.184 0.775999C2.672 0.479999 3.22 0.331999 3.828 0.331999C4.632 0.331999 5.278 0.533999 5.766 0.938C6.258 1.338 6.596 1.86 6.78 2.504L5.772 2.708C5.616 2.24 5.366 1.868 5.022 1.592C4.682 1.312 4.284 1.172 3.828 1.172C3.432 1.172 3.066 1.286 2.73 1.514C2.398 1.738 2.13 2.074 1.926 2.522C1.722 2.97 1.62 3.524 1.62 4.184C1.62 4.784 1.7 5.318 1.86 5.786C2.024 6.254 2.268 6.622 2.592 6.89C2.92 7.158 3.332 7.292 3.828 7.292C4.424 7.292 4.896 7.132 5.244 6.812C5.596 6.492 5.772 6.072 5.772 5.552H6.792C6.792 6.092 6.668 6.556 6.42 6.944C6.172 7.328 5.824 7.624 5.376 7.832C4.932 8.04 4.416 8.144 3.828 8.144ZM9.67138 8L12.2634 0.464H13.4034L15.9354 8H14.9514L14.3154 6.068H11.3154L10.6554 8H9.67138ZM11.5554 5.336H14.0754L12.8154 1.604L11.5554 5.336ZM19.462 8V0.464H22.09C22.95 0.464 23.6 0.67 24.04 1.082C24.484 1.49 24.706 2.028 24.706 2.696C24.706 3.356 24.484 3.892 24.04 4.304C23.6 4.712 22.95 4.916 22.09 4.916H20.398V8H19.462ZM23.686 8L21.526 4.58H22.546L24.898 8H23.686ZM20.398 4.256H22.018C22.582 4.256 23.01 4.118 23.302 3.842C23.598 3.562 23.746 3.2 23.746 2.756C23.746 2.3 23.604 1.938 23.32 1.67C23.04 1.402 22.63 1.268 22.09 1.268H20.398V4.256ZM27.6697 1.268V0.464H33.5377V1.268H30.8557L31.0657 1.052V8H30.1297V1.052L30.3397 1.268H27.6697Z" fill="#1D1F2E"/>
</svg>
